<svg width="640" height="640" viewBox="0 0 640 640" fill="none" xmlns="http://www.w3.org/2000/svg">
  <rect width="640" height="640" rx="56" fill="url(#paint0_linear)"/>
  <rect x="72" y="84" width="496" height="216" rx="28" fill="white" fill-opacity="0.85"/>
  <rect x="110" y="128" width="188" height="16" rx="8" fill="#111827"/>
  <rect x="110" y="160" width="268" height="14" rx="7" fill="#CBD5F5"/>
  <rect x="110" y="188" width="230" height="14" rx="7" fill="#DCE8FF"/>
  <rect x="110" y="232" width="120" height="36" rx="18" fill="#111827"/>
  <rect x="246" y="232" width="136" height="36" rx="18" fill="#E2E8F0"/>
  <rect x="72" y="336" width="496" height="220" rx="36" fill="white" fill-opacity="0.9"/>
  <rect x="110" y="374" width="120" height="12" rx="6" fill="#94A3B8"/>
  <rect x="110" y="398" width="164" height="12" rx="6" fill="#CBD5F5"/>
  <rect x="110" y="436" width="200" height="90" rx="20" fill="#E2E8F0"/>
  <rect x="330" y="436" width="198" height="90" rx="20" fill="#F8FAFC"/>
  <circle cx="470" cy="256" r="72" fill="url(#paint1_radial)" fill-opacity="0.9"/>
  <circle cx="204" cy="456" r="64" fill="url(#paint2_radial)" fill-opacity="0.85"/>
  <defs>
    <linearGradient id="paint0_linear" x1="0" y1="0" x2="640" y2="640" gradientUnits="userSpaceOnUse">
      <stop stop-color="#DCE8FF"/>
      <stop offset="0.55" stop-color="#F5F7FB"/>
      <stop offset="1" stop-color="#CFFAFE"/>
    </linearGradient>
    <radialGradient id="paint1_radial" cx="0" cy="0" r="1" gradientUnits="userSpaceOnUse" gradientTransform="translate(470 256) rotate(90) scale(72)">
      <stop stop-color="#38BDF8"/>
      <stop offset="1" stop-color="#2563EB"/>
    </radialGradient>
    <radialGradient id="paint2_radial" cx="0" cy="0" r="1" gradientUnits="userSpaceOnUse" gradientTransform="translate(204 456) rotate(90) scale(64)">
      <stop stop-color="#A7B6FF"/>
      <stop offset="1" stop-color="#60C3FF"/>
    </radialGradient>
  </defs>
</svg>
